<svg xmlns="http://www.w3.org/2000/svg" viewBox="0 0 378.76 102.38"><defs><style>.cls-1{fill:#a83995;}.cls-2{fill:#6fc8bc;}.cls-3{fill:#e76771;}.cls-4{fill:#653569;}.cls-5{fill:#f6a766;}</style></defs><title>chosa</title><g id="Calque_2" data-name="Calque 2"><g id="Calque_1-2" data-name="Calque 1"><path class="cls-1" d="M14.38,96.84Q3.42,89.4.66,73.76A36.33,36.33,0,0,1,2,54.78,31.33,31.33,0,0,1,12.62,40.36a40.7,40.7,0,0,1,18-7.59,44.9,44.9,0,0,1,11.49-.51,36.1,36.1,0,0,1,10.63,2.4,8.63,8.63,0,0,1,5.51,7,11.3,11.3,0,0,1-.75,7.1A6.1,6.1,0,0,1,53,52.27a13,13,0,0,1-4,.08,25.94,25.94,0,0,1-4.46-1.08,48.13,48.13,0,0,0-4.86-1,13.64,13.64,0,0,0-4.25.13Q22.17,52.74,25,68.91q1.42,8,5.57,11.63T41.17,83a14.42,14.42,0,0,0,4.1-1.34,30.32,30.32,0,0,0,4-2.57q2.46-1.68,4-2.58a11.17,11.17,0,0,1,3.57-1.25A6.08,6.08,0,0,1,62.37,77a11.18,11.18,0,0,1,3.13,6.41,10,10,0,0,1-.26,4.8,7.48,7.48,0,0,1-2.39,3.66q-8.24,7.25-21.46,9.57Q25.34,104.29,14.38,96.84Z"/><path class="cls-2" d="M145.59,42.92q4.31,7.89,1.83,22l-5,28.43a10.31,10.31,0,0,1-4.55,7.34q-3.66,2.34-9.06,1.39t-8-4.41A10.31,10.31,0,0,1,119,89.18l5.1-29q1.68-9.48-6.48-10.92a11,11,0,0,0-8.95,1.89Q105,54,104,59.67l-4.6,26.05a10.32,10.32,0,0,1-4.55,7.34q-3.67,2.34-9.06,1.39c-3.6-.64-6.28-2.1-8.05-4.41A10.33,10.33,0,0,1,76,81.59L88.8,8.69a9.87,9.87,0,0,1,4.63-7,12.68,12.68,0,0,1,9.2-1.43,12.32,12.32,0,0,1,7.81,4.23,9.44,9.44,0,0,1,1.86,7.92l-4.64,26.32a23.13,23.13,0,0,1,10-5.42A29.05,29.05,0,0,1,130,33Q141.28,35,145.59,42.92Z"/><path class="cls-3" d="M178,100.58a30.67,30.67,0,0,1-14.83-9.74,36.26,36.26,0,0,1-7.7-17.41,35.9,35.9,0,0,1,1.29-18.94,30.52,30.52,0,0,1,10.56-14.08,42.45,42.45,0,0,1,18.41-7.52,42.49,42.49,0,0,1,19.88.77,30.61,30.61,0,0,1,14.74,9.62,36,36,0,0,1,7.69,17.35,36.37,36.37,0,0,1-1.28,19,30.85,30.85,0,0,1-10.54,14.21A46,46,0,0,1,178,100.58Zm26.47-35.79q-2.92-16.61-15.64-14.36t-9.8,18.84Q182,85.88,194.72,83.63T204.51,64.79Z"/><path class="cls-4" d="M247.14,97.5A34.53,34.53,0,0,1,237,91.26a6.64,6.64,0,0,1-2.39-3.75,12.08,12.08,0,0,1-.18-5.31,9.24,9.24,0,0,1,3-5.65,6.23,6.23,0,0,1,5.34-1.49,14.8,14.8,0,0,1,3.68,1.14,35.6,35.6,0,0,1,4,2.31q4,2.23,7.21,3.63A37,37,0,0,0,266,84.43a13.47,13.47,0,0,0,5.9,0,3.2,3.2,0,0,0,2.6-2.53,2.79,2.79,0,0,0-.6-2.47,11.41,11.41,0,0,0-3.57-2.22q-2.7-1.24-9.19-3.78-11.6-4.4-16.09-10t-3-14.07a18.08,18.08,0,0,1,5.81-10.51,25.7,25.7,0,0,1,11.95-5.94,38.92,38.92,0,0,1,15.58-.17,47.65,47.65,0,0,1,11.53,3.56,38.63,38.63,0,0,1,9.43,6q3.75,3.16,2.8,8.55a10.08,10.08,0,0,1-3.14,6,6.21,6.21,0,0,1-5.43,1.68,20.56,20.56,0,0,1-7.95-3.76,45.66,45.66,0,0,0-5.33-3.24,21.51,21.51,0,0,0-5.73-1.77,11.4,11.4,0,0,0-5.43.08,3.21,3.21,0,0,0-2.4,2.57c-.25,1.43.42,2.71,2,3.83s4.93,2.63,10,4.53q12.65,4.59,17.23,10.19t3,14.35A18.68,18.68,0,0,1,285,99.53q-9.18,4.43-22.92,2A74.54,74.54,0,0,1,247.14,97.5Z"/><path class="cls-5" d="M362.67,36.09q8.43,5.91,11,20.52l4.85,27.5A10.46,10.46,0,0,1,377,92.46c-1.64,2.24-4.22,3.67-7.72,4.28a11.11,11.11,0,0,1-8-1.29,10,10,0,0,1-4.48-6.54,14.8,14.8,0,0,1-4.89,8.46,20,20,0,0,1-9.93,4.46,27.14,27.14,0,0,1-12.58-.56,21.27,21.27,0,0,1-9.81-6,19.9,19.9,0,0,1-5-10.32q-1.23-7,1.66-11.75t10.46-8q7.58-3.24,21-5.6l3.55-.63-.27-1.58q-.83-4.6-3.28-6.27c-1.65-1.11-4.13-1.38-7.47-.79q-5.4,1-15.14,6.47a16.32,16.32,0,0,1-4.95,2,6.65,6.65,0,0,1-5.68-1.44,9.51,9.51,0,0,1-3.06-5.84,8.71,8.71,0,0,1,.35-5,10.53,10.53,0,0,1,3.23-4,47,47,0,0,1,10.91-5.86,68.77,68.77,0,0,1,13.43-3.86Q354.23,30.19,362.67,36.09ZM351.84,80.47a12.62,12.62,0,0,0,1.51-9.15l-.28-1.58-2.11.37q-8.41,1.48-11.71,3.63a5.29,5.29,0,0,0-2.66,5.69,7,7,0,0,0,2.79,4.66,6.63,6.63,0,0,0,5.29,1.11A10.14,10.14,0,0,0,351.84,80.47Z"/></g></g></svg>