<svg xmlns="http://www.w3.org/2000/svg" viewBox="0 0 496.88 106.46"><defs><style>.cls-1{fill:#fff;}</style></defs><title>chosa-white</title><g id="Calque_2" data-name="Calque 2"><g id="Retenue"><path class="cls-1" d="M111.36,96.38Q101,86.3,101,69a39.71,39.71,0,0,1,5-20.17,34.24,34.24,0,0,1,14.16-13.49A44.54,44.54,0,0,1,141,30.55a48.82,48.82,0,0,1,12.45,1.63,39.65,39.65,0,0,1,11,4.59,9.4,9.4,0,0,1,4.6,8.6,12.25,12.25,0,0,1-2.15,7.49,6.63,6.63,0,0,1-5.56,2.89,14.1,14.1,0,0,1-4.3-.66,29.19,29.19,0,0,1-4.6-2,51.74,51.74,0,0,0-5-2,15.12,15.12,0,0,0-4.6-.66q-14.67,0-14.68,17.94,0,8.9,3.79,13.56t10.89,4.68a15.94,15.94,0,0,0,4.68-.67,33.15,33.15,0,0,0,4.81-2q3-1.34,4.82-2a12.12,12.12,0,0,1,4.08-.66,6.63,6.63,0,0,1,5.56,2.89,12.25,12.25,0,0,1,2.15,7.49,11,11,0,0,1-1.18,5.11,8.26,8.26,0,0,1-3.27,3.49q-10.23,6.23-24.91,6.22Q121.74,106.46,111.36,96.38Z"/><path class="cls-1" d="M247.18,38.33q6.23,7.79,6.23,23.65V94a11.49,11.49,0,0,1-3.56,8.9q-3.56,3.25-9.64,3.26t-9.63-3.26A11.46,11.46,0,0,1,227,94V61.39q0-10.68-9.2-10.68a12.17,12.17,0,0,0-9.41,3.78q-3.49,3.78-3.49,10.16V94a11.48,11.48,0,0,1-3.55,8.9q-3.57,3.25-9.64,3.26t-9.64-3.26a11.49,11.49,0,0,1-3.56-8.9V11.86a10.91,10.91,0,0,1,3.71-8.52Q185.95,0,192,0a13.73,13.73,0,0,1,9.35,3.11,10.5,10.5,0,0,1,3.55,8.31V41.07a25.67,25.67,0,0,1,9.94-7.86,32.29,32.29,0,0,1,13.34-2.66Q241,30.55,247.18,38.33Z"/><path class="cls-1" d="M283.88,101.79A33.43,33.43,0,0,1,269.8,88.52a39.5,39.5,0,0,1-5-20.16q0-11.56,5-20.1a33.33,33.33,0,0,1,14-13.12q9-4.59,21.2-4.59t21.21,4.59a33.44,33.44,0,0,1,14,13.12q5,8.54,5,20.1a39.6,39.6,0,0,1-5,20.16,33.66,33.66,0,0,1-14,13.27q-9,4.68-21.21,4.67A45.65,45.65,0,0,1,283.88,101.79ZM319.1,68.36Q319.1,50,305,50T290.93,68.36q0,18.39,14.08,18.38T319.1,68.36Z"/><path class="cls-1" d="M369.21,105a37.2,37.2,0,0,1-12-4.74,7.23,7.23,0,0,1-3.26-3.56A13.09,13.09,0,0,1,352.76,91a9.94,9.94,0,0,1,2.15-6.59,6.73,6.73,0,0,1,5.41-2.6,15.78,15.78,0,0,1,4.15.52,38.93,38.93,0,0,1,4.74,1.7q4.76,1.64,8.38,2.53a40.19,40.19,0,0,0,9.27.88,14.7,14.7,0,0,0,6.3-1.11,3.47,3.47,0,0,0,2.3-3.19,3.06,3.06,0,0,0-1.11-2.52,12.28,12.28,0,0,0-4.23-1.7q-3.11-.81-10.53-2.3-13.18-2.52-19-7.64t-5.86-14.45a19.66,19.66,0,0,1,4.23-12.31,28,28,0,0,1,11.64-8.6,42.43,42.43,0,0,1,16.61-3.11,51.46,51.46,0,0,1,13,1.63,42,42,0,0,1,11.2,4.59q4.59,2.67,4.59,8.6a10.89,10.89,0,0,1-2.22,7,6.74,6.74,0,0,1-5.49,2.82A22.27,22.27,0,0,1,399,52.64a49.28,49.28,0,0,0-6.3-2.45,22.9,22.9,0,0,0-6.45-.81,12.44,12.44,0,0,0-5.79,1.11,3.47,3.47,0,0,0-2.07,3.19q0,2.37,2.89,3.7t11.49,3q14.38,2.52,20.32,7.64T419,82.74a20.22,20.22,0,0,1-9,17.27q-9,6.45-24.1,6.45A80.37,80.37,0,0,1,369.21,105Z"/><path class="cls-1" d="M488.8,38.63q8.08,8.09,8.08,24.54v31q0,5.64-3.33,8.82t-9.27,3.19a12.36,12.36,0,0,1-8.53-3,11.1,11.1,0,0,1-3.63-8,16.49,16.49,0,0,1-7,8.3,22.15,22.15,0,0,1-11.71,3,30,30,0,0,1-13.64-3A23.62,23.62,0,0,1,430.23,95a22.09,22.09,0,0,1-3.48-12.23q0-7.86,4.07-12.53t13-6.75q8.9-2.07,24-2.07h4V59.61q0-5.19-2.37-7.49t-8-2.3q-6.07,0-17.79,4.15a17.93,17.93,0,0,1-5.78,1.19,7.31,7.31,0,0,1-5.93-2.67,10.49,10.49,0,0,1-2.23-7,9.74,9.74,0,0,1,1.34-5.34,11.62,11.62,0,0,1,4.3-3.7,51.71,51.71,0,0,1,13-4.3,75.6,75.6,0,0,1,15.43-1.63Q480.73,30.55,488.8,38.63ZM468.41,85a13.92,13.92,0,0,0,3.41-9.71V73.55h-2.37q-9.49,0-13.49,1.7T452,81a7.81,7.81,0,0,0,2.15,5.64,7.41,7.41,0,0,0,5.56,2.22A11.25,11.25,0,0,0,468.41,85Z"/><path class="cls-1" d="M36.72,61a6.43,6.43,0,0,0-4.51,1.79A5.87,5.87,0,0,0,30.37,67a6.21,6.21,0,0,0,6.35,6.06h0a6.43,6.43,0,0,0,4.5-1.79A5.87,5.87,0,0,0,43.06,67,6.2,6.2,0,0,0,36.72,61Z"/><path class="cls-1" d="M36.72,58.07a9.2,9.2,0,0,1,2.36.3.49.49,0,0,0,.59-.3A29.37,29.37,0,0,0,37.12,32a.5.5,0,0,0-.42-.23H3.36a.48.48,0,0,0-.33.83L31,59.51a.47.47,0,0,0,.6.05A9.4,9.4,0,0,1,36.72,58.07Z"/><path class="cls-1" d="M27.61,60.3,17.44,50.5a.5.5,0,0,0-.68,0l-9.6,9.25a.48.48,0,0,0,.46.81,36.06,36.06,0,0,1,19.51.55A.49.49,0,0,0,27.61,60.3Z"/><path class="cls-1" d="M43.62,58.37,53.87,48.5a.48.48,0,0,0,0-.7l-9.69-9.33a.48.48,0,0,0-.8.48,32.54,32.54,0,0,1-.57,18.92Z"/><path class="cls-1" d="M46,67a8.45,8.45,0,0,1-.28,2.2.49.49,0,0,0,.31.59,32.71,32.71,0,0,0,27.17-2.46.47.47,0,0,0,.25-.43V34.85a.48.48,0,0,0-.82-.35l-28.07,27a.48.48,0,0,0-.06.62A8.66,8.66,0,0,1,46,67Z"/><path class="cls-1" d="M45.83,73.8,56,83.59a.48.48,0,0,0,.67,0l9.6-9.25a.48.48,0,0,0-.46-.81,34.19,34.19,0,0,1-8.6,1.09A38.22,38.22,0,0,1,46.3,73,.49.49,0,0,0,45.83,73.8Z"/><path class="cls-1" d="M27.45,67a8.88,8.88,0,0,1,.28-2.19.49.49,0,0,0-.31-.59A32.71,32.71,0,0,0,.25,66.72a.49.49,0,0,0-.25.43V99.24a.48.48,0,0,0,.82.35l28.07-27a.47.47,0,0,0,.06-.62A8.67,8.67,0,0,1,27.45,67Z"/><path class="cls-1" d="M29.82,75.72,19.57,85.59a.48.48,0,0,0,0,.7l9.69,9.33a.48.48,0,0,0,.79-.48,32.54,32.54,0,0,1,.57-18.92Z"/><path class="cls-1" d="M36.72,76h0a9.27,9.27,0,0,1-2.37-.3.49.49,0,0,0-.59.3,29.41,29.41,0,0,0,2.55,26.1.51.51,0,0,0,.43.23H70.07a.48.48,0,0,0,.34-.83l-28-26.94a.47.47,0,0,0-.6,0A9.43,9.43,0,0,1,36.72,76Z"/></g></g></svg>