<svg xmlns="http://www.w3.org/2000/svg" viewBox="0 0 491 132.72"><defs><style>.cls-1{fill:#fff;}</style></defs><title>chosa-white</title><g id="Calque_2" data-name="Calque 2"><g id="Calque_1-2" data-name="Calque 1"><path class="cls-1" d="M18.64,125.54Q4.43,115.9.86,95.62A47,47,0,0,1,2.6,71,40.51,40.51,0,0,1,16.37,52.32a52.75,52.75,0,0,1,23.37-9.84,58.13,58.13,0,0,1,14.89-.66A46.88,46.88,0,0,1,68.4,44.93q6,2.35,7.15,9.1a14.59,14.59,0,0,1-1,9.2,7.85,7.85,0,0,1-5.91,4.52,16.26,16.26,0,0,1-5.16.11,33.89,33.89,0,0,1-5.78-1.39,59,59,0,0,0-6.31-1.3,17.49,17.49,0,0,0-5.51.17q-17.16,3-13.46,24,1.83,10.4,7.22,15.08t13.7,3.21a19,19,0,0,0,5.32-1.74,40.19,40.19,0,0,0,5.22-3.33q3.18-2.17,5.22-3.34a14.34,14.34,0,0,1,4.63-1.62,7.86,7.86,0,0,1,7.09,2.24,14.54,14.54,0,0,1,4.06,8.3,13.13,13.13,0,0,1-.34,6.23,9.84,9.84,0,0,1-3.09,4.74q-10.68,9.39-27.83,12.41Q32.85,135.19,18.64,125.54Z"/><path class="cls-1" d="M188.73,55.64q5.58,10.22,2.37,28.47L184.6,121q-1.14,6.48-5.9,9.51T167,132.27q-7-1.23-10.43-5.71c-2.28-3-3.05-6.63-2.28-11l6.61-37.53Q163,65.8,152.44,63.93q-6.83-1.2-11.6,2.44t-6.07,11l-6,33.77q-1.14,6.5-5.9,9.52t-11.75,1.79q-7-1.23-10.43-5.7t-2.29-11l16.67-94.51a12.78,12.78,0,0,1,6-9Q126-.88,133.05.35q6.64,1.17,10.11,5.48a12.25,12.25,0,0,1,2.41,10.27l-6,34.12a29.9,29.9,0,0,1,13-7,37.52,37.52,0,0,1,15.89-.37Q183.14,45.43,188.73,55.64Z"/><path class="cls-1" d="M230.79,130.39a39.86,39.86,0,0,1-19.22-12.63q-7.59-9-10-22.58t1.67-24.54A39.6,39.6,0,0,1,217,52.39q9.65-7.24,23.87-9.76t25.77,1A39.56,39.56,0,0,1,285.7,56.11q7.57,9,10,22.49T294,103.23a40,40,0,0,1-13.67,18.42q-9.61,7.34-23.85,9.84Q242.44,134,230.79,130.39ZM265.11,84q-3.8-21.51-20.28-18.61T232.14,89.8q3.8,21.51,20.28,18.61T265.11,84Z"/><path class="cls-1" d="M320.37,126.39a44.45,44.45,0,0,1-13.15-8.08,8.61,8.61,0,0,1-3.1-4.87,15.52,15.52,0,0,1-.23-6.88,11.91,11.91,0,0,1,3.9-7.33,8.08,8.08,0,0,1,6.91-1.93,18.82,18.82,0,0,1,4.78,1.48,44.94,44.94,0,0,1,5.23,3c3.5,1.94,6.62,3.5,9.35,4.71a47.8,47.8,0,0,0,10.73,3,17.71,17.71,0,0,0,7.65,0c1.95-.56,3.08-1.65,3.37-3.28A3.66,3.66,0,0,0,355,103a14.74,14.74,0,0,0-4.62-2.88q-3.51-1.61-11.92-4.9-15-5.7-20.85-12.94T313.73,64a23.52,23.52,0,0,1,7.53-13.62,33.5,33.5,0,0,1,15.49-7.71A50.87,50.87,0,0,1,357,42.46a62.32,62.32,0,0,1,14.94,4.62,49.71,49.71,0,0,1,12.22,7.73q4.86,4.11,3.63,11.09a13,13,0,0,1-4.07,7.74,8.07,8.07,0,0,1-7,2.18q-4.54-.81-10.3-4.88a59.14,59.14,0,0,0-6.92-4.19,27.38,27.38,0,0,0-7.42-2.3,14.92,14.92,0,0,0-7,.11,4.17,4.17,0,0,0-3.11,3.32c-.33,1.87.55,3.52,2.64,5s6.39,3.41,12.91,5.88q16.41,6,22.34,13.21t3.92,18.6q-2.25,12.75-14.15,18.48t-29.71,2.59A96.4,96.4,0,0,1,320.37,126.39Z"/><path class="cls-1" d="M470.14,46.79q10.94,7.66,14.27,26.59L490.7,109q1.14,6.48-2.05,10.82t-10,5.55a14.46,14.46,0,0,1-10.41-1.68,13,13,0,0,1-5.8-8.48,19.15,19.15,0,0,1-6.33,11A25.87,25.87,0,0,1,443.21,132a35.16,35.16,0,0,1-16.31-.73,27.78,27.78,0,0,1-12.72-7.78,25.94,25.94,0,0,1-6.49-13.37q-1.59-9,2.15-15.24t13.56-10.4q9.81-4.18,27.22-7.26l4.6-.81-.36-2q-1-6-4.25-8.13t-9.68-1q-7,1.23-19.62,8.39a21.28,21.28,0,0,1-6.42,2.53,8.58,8.58,0,0,1-7.36-1.86,12.28,12.28,0,0,1-4-7.57A11.2,11.2,0,0,1,404,60.3a13.55,13.55,0,0,1,4.19-5.14,60.19,60.19,0,0,1,14.14-7.59,88,88,0,0,1,17.41-5Q459.21,39.13,470.14,46.79Zm-14,57.53a16.33,16.33,0,0,0,1.95-11.87l-.36-2-2.73.48q-10.92,1.92-15.18,4.7T436.33,103a9,9,0,0,0,3.62,6,8.62,8.62,0,0,0,6.85,1.44A13.2,13.2,0,0,0,456.1,104.32Z"/></g></g></svg>